<svg id="Layer_1" data-name="Layer 1" xmlns="http://www.w3.org/2000/svg" viewBox="0 0 1020 300"><defs><style>.cls-1{fill:#fff;}.cls-2{fill:none;}</style></defs><title>Harmony-logo-WH-horizontal</title><path class="cls-1" d="M201.17,61.26A38.81,38.81,0,0,0,162.33,100v42.93c-4,.27-8.09.44-12.33.44s-8.31.17-12.33.41V100A38.84,38.84,0,0,0,60,100V202.55a38.84,38.84,0,0,0,77.67,0V159.63c4-.27,8.09-.44,12.33-.44s8.31-.17,12.33-.41v43.77a38.84,38.84,0,0,0,77.67,0V100A38.81,38.81,0,0,0,201.17,61.26ZM98.83,77.12A22.91,22.91,0,0,1,121.75,100v45.46a130.64,130.64,0,0,0-33,9.33,60,60,0,0,0-12.8,7.64V100A22.91,22.91,0,0,1,98.83,77.12Zm22.92,125.43a22.92,22.92,0,0,1-45.84,0V192.29c0-9.08,7.2-17.7,19.27-23a112.49,112.49,0,0,1,26.57-7.77Zm79.42,22.85a22.91,22.91,0,0,1-22.92-22.85V157.09a129.82,129.82,0,0,0,33-9.33,59.55,59.55,0,0,0,12.8-7.63v62.42A22.91,22.91,0,0,1,201.17,225.4Zm3.65-92.12A112.49,112.49,0,0,1,178.25,141V100a22.92,22.92,0,0,1,45.84,0v10.26C224.09,119.31,216.89,127.92,204.82,133.28Z"/><path class="cls-1" d="M748.35,125.42a42.45,42.45,0,1,0,42.44,42.45A42.45,42.45,0,0,0,748.35,125.42Zm0,71.13A28.69,28.69,0,1,1,777,167.87,28.68,28.68,0,0,1,748.35,196.55Zm-258.2-70.83a6.88,6.88,0,0,0-6.88,6.88v4.05a42.45,42.45,0,1,0,0,62.43v4a6.88,6.88,0,1,0,13.76,0V132.6A6.88,6.88,0,0,0,490.15,125.72Zm-35.57,70.83a28.69,28.69,0,1,1,28.69-28.68A28.68,28.68,0,0,1,454.58,196.55Zm108.49-64.24a6.88,6.88,0,0,1-6.87,6.87c-.15,0-.28,0-.42,0s-.31,0-.47,0a28.68,28.68,0,0,0-28.69,28.69c-.36,1.42-.21,23.25-.1,36.16a6.85,6.85,0,0,1-7.81,5.87,7.1,7.1,0,0,1-5.85-7.13V132.6a6.88,6.88,0,0,1,7.25-6.87,7.14,7.14,0,0,1,6.51,7.26v3.66a42.24,42.24,0,0,1,28.69-11.23l.89,0A6.87,6.87,0,0,1,563.07,132.31ZM873.69,161v42.1a6.88,6.88,0,0,1-6.88,6.88h0a6.88,6.88,0,0,1-6.87-6.88v-6.88h0V161a21.5,21.5,0,0,0-23-21.42c-11.4.76-20,10.75-20,22.17v8.37h0v26.1h0v6.88a6.88,6.88,0,1,1-13.76,0V132.64a6.88,6.88,0,0,1,13.76,0v.65a34.2,34.2,0,0,1,19.77-7.49A35.23,35.23,0,0,1,873.69,161ZM398,96.79V203.21a6.8,6.8,0,0,1-13.59,0V155H313.59v48.26a6.8,6.8,0,0,1-13.59,0V96.79a6.8,6.8,0,0,1,13.59,0v46.42h70.79V96.79a6.8,6.8,0,0,1,13.59,0Zm295.49,67.46h0v38.84a6.88,6.88,0,0,1-6.88,6.88h0a6.88,6.88,0,0,1-6.88-6.88V167.7h0v-9.31a19.21,19.21,0,1,0-38.41,0h0v44.7a6.88,6.88,0,1,1-13.76,0V167.7h0v-9.31h0a19.21,19.21,0,1,0-38.41,0v44.7a6.88,6.88,0,0,1-13.76,0V132.64a6.87,6.87,0,0,1,13.68-1,32.89,32.89,0,0,1,45.37,6.63,32.93,32.93,0,0,1,59.05,20.1Zm265.89-28.6L913,236a7,7,0,0,1-12.65-5.85l12.47-27-31.23-67.51a7,7,0,1,1,12.64-5.85l26.27,56.77,26.26-56.77a7,7,0,1,1,12.64,5.85Z"/><rect class="cls-2" x="300" y="60" width="660" height="180"/><rect class="cls-2" width="1020" height="300"/></svg>