<svg width="64" height="64" viewBox="0 0 64 64" fill="none" xmlns="http://www.w3.org/2000/svg">
<path d="M60.533 28L56.6663 24.1333C56.3997 23.8667 55.9997 23.8667 55.733 24.1333L53.733 26.1333C53.4663 26.4 53.4663 26.8 53.733 27.0667L57.5997 30.9334C57.8663 31.2 58.2663 31.2 58.533 30.9334L60.533 28.9334C60.7997 28.6667 60.7997 28.2667 60.533 28ZM27.9997 46.2667H7.99967C6.93301 46.2667 5.99967 47.2 5.99967 48.2667C5.99967 49.3334 6.93301 50.2667 7.99967 50.2667H27.9997C29.0663 50.2667 29.9997 49.3334 29.9997 48.2667C29.9997 47.2 29.0663 46.2667 27.9997 46.2667Z" fill="#D6D6D8"/>
<path d="M55.3339 33.3333L51.4672 29.4667C51.2005 29.2 50.8005 29.2 50.5339 29.4667L39.8672 40.1333C39.6005 40.4 39.6005 40.8 39.8672 41.0667L43.7339 44.9333C44.0005 45.2 44.4005 45.2 44.6672 44.9333L55.3339 34.2667C55.6005 34 55.6005 33.4667 55.3339 33.3333ZM52.5339 17.7333C52.5339 16.2667 51.3339 15.0667 49.8672 15.0667H7.20052C5.73385 15.0667 4.53385 16.2667 4.53385 17.7333V40.4C4.53385 41.8667 5.73385 43.0667 7.20052 43.0667H32.2672C32.4005 42.8 52.5339 22.6667 52.5339 22.6667V17.7333ZM14.6672 26.8L18.0005 28.5333C19.8672 29.4667 20.8005 31.4667 20.5339 33.4667C20.2672 35.2 19.2005 36.5333 17.6005 37.0667V37.7333C17.6005 38.6667 16.8005 39.4667 15.8672 39.4667C14.9339 39.4667 14.1339 38.6667 14.1339 37.7333V37.2C12.5339 36.8 11.2005 35.6 10.4005 34C10.0005 33.2 10.4005 32.1333 11.2005 31.8667C12.0005 31.4667 13.0672 31.8667 13.3339 32.6667C13.7339 33.6 14.6672 34.1333 15.7339 34.1333H15.8672C16.6672 34 16.8005 33.3333 16.9339 33.0666C17.0672 32.5333 16.8005 32 16.2672 31.6L12.9339 29.8667C11.0672 28.9333 10.1339 26.9333 10.5339 24.8C10.9339 22.9333 12.2672 21.4667 14.1339 21.0667V20.4C14.1339 19.4667 14.9339 18.6667 15.8672 18.6667C16.8005 18.6667 17.6005 19.4667 17.6005 20.4V21.3333C18.9339 21.8667 20.0005 22.9333 20.5339 24.2667C20.9339 25.0667 20.5339 26.1333 19.7339 26.4C18.9339 26.8 17.8672 26.4 17.6005 25.6C17.2005 24.6667 16.2672 24.1333 15.2005 24.1333C14.2672 24.2667 14.1339 24.9333 14.0005 25.2C14.0005 25.4666 13.8672 26.2667 14.6672 26.8ZM34.6672 34.6667H26.6672C25.7339 34.6667 24.9339 33.8667 24.9339 32.9333C24.9339 32 25.7339 31.2 26.6672 31.2H34.6672C35.6005 31.2 36.4005 32 36.4005 32.9333C36.2672 34 35.6005 34.6667 34.6672 34.6667ZM40.0005 28H26.6672C25.7339 28 24.9339 27.2 24.9339 26.2667C24.9339 25.3333 25.7339 24.5333 26.6672 24.5333H40.0005C40.9339 24.5333 41.7339 25.3333 41.7339 26.2667C41.6005 27.3333 40.9339 28 40.0005 28ZM37.4672 43.4667C37.2005 43.2 36.8005 43.2 36.5339 43.4667C36.1339 43.8667 35.4672 44.5333 35.2005 44.8C35.0672 44.9333 35.0672 45.0667 35.0672 45.2L34.8005 49.4667C34.8005 49.8667 35.0672 50.2667 35.6005 50.1333L39.7339 49.6C39.8672 49.6 40.0005 49.4667 40.1339 49.4667L41.4672 48.1333C41.7339 47.8667 41.7339 47.4667 41.4672 47.2L37.4672 43.4667Z" fill="#D6D6D8"/>
</svg>
