<svg width="64" height="64" viewBox="0 0 64 64" fill="none" xmlns="http://www.w3.org/2000/svg">
<path d="M42.0003 32.6666C41.6003 32.6666 18.0003 32.6666 18.0003 32.6666C17.2003 32.6666 16.667 32.1333 16.667 31.3333V19.3333C16.667 18.5333 17.2003 17.9999 18.0003 17.9999H26.667C26.667 17.7333 26.667 17.5999 26.667 17.3333C26.667 14.3999 27.467 11.5999 28.9337 9.33325H16.667C13.7337 9.33325 11.3337 11.7333 11.3337 14.6666V54.6666C11.3337 57.5999 13.7337 59.9999 16.667 59.9999H42.0003C44.9337 59.9999 47.3337 57.5999 47.3337 54.6666V31.7333C45.7337 32.2666 43.867 32.6666 42.0003 32.6666ZM21.3337 54.6666H18.667C17.6003 54.6666 16.667 53.7333 16.667 52.6666C16.667 51.5999 17.6003 50.6666 18.667 50.6666H21.3337C22.4003 50.6666 23.3337 51.5999 23.3337 52.6666C23.3337 53.7333 22.4003 54.6666 21.3337 54.6666ZM21.3337 47.9999H18.667C17.6003 47.9999 16.667 47.0666 16.667 45.9999C16.667 44.9333 17.6003 43.9999 18.667 43.9999H21.3337C22.4003 43.9999 23.3337 44.9333 23.3337 45.9999C23.3337 47.0666 22.4003 47.9999 21.3337 47.9999ZM21.3337 41.3333H18.667C17.6003 41.3333 16.667 40.3999 16.667 39.3333C16.667 38.2666 17.6003 37.3333 18.667 37.3333H21.3337C22.4003 37.3333 23.3337 38.2666 23.3337 39.3333C23.3337 40.3999 22.4003 41.3333 21.3337 41.3333ZM30.667 54.6666H28.0003C26.9337 54.6666 26.0003 53.7333 26.0003 52.6666C26.0003 51.5999 26.9337 50.6666 28.0003 50.6666H30.667C31.7337 50.6666 32.667 51.5999 32.667 52.6666C32.667 53.7333 31.7337 54.6666 30.667 54.6666ZM30.667 47.9999H28.0003C26.9337 47.9999 26.0003 47.0666 26.0003 45.9999C26.0003 44.9333 26.9337 43.9999 28.0003 43.9999H30.667C31.7337 43.9999 32.667 44.9333 32.667 45.9999C32.667 47.0666 31.7337 47.9999 30.667 47.9999ZM30.667 41.3333H28.0003C26.9337 41.3333 26.0003 40.3999 26.0003 39.3333C26.0003 38.2666 26.9337 37.3333 28.0003 37.3333H30.667C31.7337 37.3333 32.667 38.2666 32.667 39.3333C32.667 40.3999 31.7337 41.3333 30.667 41.3333ZM42.0003 52.6666C42.0003 53.7333 41.067 54.6666 40.0003 54.6666H37.3337C36.267 54.6666 35.3337 53.7333 35.3337 52.6666V45.9999C35.3337 44.9333 36.267 43.9999 37.3337 43.9999H40.0003C41.067 43.9999 42.0003 44.9333 42.0003 45.9999V52.6666ZM40.0003 41.3333H37.3337C36.267 41.3333 35.3337 40.3999 35.3337 39.3333C35.3337 38.2666 36.267 37.3333 37.3337 37.3333H40.0003C41.067 37.3333 42.0003 38.2666 42.0003 39.3333C42.0003 40.3999 41.067 41.3333 40.0003 41.3333Z" fill="#D6D6D8"/>
<path d="M38.8006 12.9331C38.1339 12.9331 37.6006 13.4664 37.6006 14.1331V17.5998C37.7339 17.4664 38.0006 17.4664 38.1339 17.3331C38.8006 17.0664 39.4673 16.9331 40.1339 16.7998V14.1331C40.0006 13.4664 39.4673 12.9331 38.8006 12.9331Z" fill="#D6D6D8"/>
<path d="M44.0003 17.8666V20.5333C44.0003 21.2 44.5337 21.7333 45.2003 21.7333C45.867 21.7333 46.4003 21.2 46.4003 20.5333V17.0667C46.267 17.2 46.0003 17.2 45.867 17.3333C45.3337 17.6 44.667 17.7333 44.0003 17.8666Z" fill="#D6D6D8"/>
<path d="M37.6006 19.8666V20.5333C37.6006 21.1999 38.1339 21.7333 38.8006 21.7333C39.4673 21.7333 40.0006 21.1999 40.0006 20.5333V18.2666C39.4673 18.3999 39.0673 18.5333 38.6673 18.6666C38.0006 18.9333 37.6006 19.4666 37.6006 19.8666Z" fill="#D6D6D8"/>
<path d="M42.0003 5.33325C35.3337 5.33325 30.0003 10.6666 30.0003 17.3333C30.0003 23.9999 35.3337 29.3333 42.0003 29.3333C48.667 29.3333 54.0003 23.9999 54.0003 17.3333C54.0003 10.6666 48.667 5.33325 42.0003 5.33325ZM47.867 20.5333C47.867 21.9999 46.667 23.0666 45.3337 23.0666C44.667 23.0666 44.0003 22.7999 43.467 22.2666C42.9337 21.7333 42.667 21.0666 42.667 20.3999V17.8666C42.267 17.8666 41.867 17.8666 41.467 17.8666V20.3999C41.467 21.8666 40.267 22.9333 38.9337 22.9333C38.267 22.9333 37.6003 22.6666 37.067 22.1333C36.5337 21.5999 36.267 20.9333 36.267 20.2666V13.8666C36.267 12.3999 37.467 11.3333 38.8003 11.3333C40.267 11.3333 41.3337 12.5333 41.467 13.8666V16.3999C41.867 16.3999 42.267 16.3999 42.667 16.3999V13.8666C42.667 12.3999 43.867 11.1999 45.3337 11.1999C46.8003 11.1999 48.0003 12.3999 48.0003 13.8666V20.5333H47.867Z" fill="#D6D6D8"/>
<path d="M45.2009 12.9331C44.9342 12.9331 44.5342 13.0664 44.2675 13.3331C44.0009 13.5998 43.8675 13.8664 43.8675 14.2664V16.5331C44.4009 16.3998 44.8009 16.2664 45.2009 16.1331C45.8675 15.8664 46.2675 15.3331 46.2675 14.9331V14.2664C46.4009 13.4664 45.8675 12.9331 45.2009 12.9331Z" fill="#D6D6D8"/>
</svg>
