<svg width="20" height="20" viewBox="0 0 20 20" fill="none" xmlns="http://www.w3.org/2000/svg">
<path d="M20 0H0V20H20V0Z" fill="white"/>
<path d="M10.6254 17.4583L9.04207 14.5833C8.95874 14.4166 8.79207 14.3333 8.58374 14.3749C8.3754 14.4166 8.16707 14.4166 7.95874 14.4166C7.3754 14.4166 6.83374 14.2499 6.3754 13.9583C6.16707 13.8333 5.91707 13.9166 5.79207 14.0833L3.7504 17.3749C3.41707 17.8749 3.79207 18.5833 4.41707 18.5833H9.8754C10.5421 18.6249 10.9171 17.9583 10.6254 17.4583Z" fill="#767988"/>
<path d="M16.5832 11.6666C15.9999 10.6666 14.6665 8.66661 12.7082 6.66661L13.3332 6.04161C13.8332 6.20828 14.4165 6.12494 14.8332 5.70828C15.4165 5.12494 15.4165 4.20828 14.8332 3.66661C14.2499 3.08328 13.3332 3.08328 12.7915 3.66661C12.3749 4.08328 12.2915 4.66661 12.4582 5.16661L11.7915 5.79161C9.79152 3.91661 7.79152 2.58328 6.79152 1.95828C6.41652 1.70828 5.91652 1.83328 5.66652 2.16661C4.04152 4.41661 4.29152 7.79161 6.33319 10.4166C6.16652 10.7083 6.08319 10.9999 6.08319 11.3333C6.08319 12.3749 6.91652 13.2083 7.95819 13.2083C8.37486 13.2083 8.74986 13.0416 9.08319 12.8333C11.5415 14.2083 14.3749 14.2499 16.3332 12.8333C16.7499 12.5416 16.8332 12.0416 16.5832 11.6666ZM7.49986 9.08328C7.41652 9.16661 7.29152 9.16661 7.20819 9.16661C7.04152 9.16661 6.87486 9.08328 6.74986 8.91661C5.87486 7.49994 5.58319 5.87494 6.04152 4.49994C6.12486 4.20828 6.41652 4.08328 6.70819 4.16661C6.99986 4.24994 7.12486 4.54161 7.04152 4.83328C6.70819 5.91661 6.91652 7.24994 7.62486 8.37494C7.79152 8.62494 7.74986 8.95828 7.49986 9.08328Z" fill="#767988"/>
</svg>
