<svg width="20" height="20" viewBox="0 0 20 20" fill="none" xmlns="http://www.w3.org/2000/svg">
<path d="M20 0H0V20H20V0Z" fill="white"/>
<path d="M7.45809 12.375C7.41642 12.2917 7.33309 12.25 7.24976 12.25H6.24976C4.45809 12.25 2.99976 13.7083 2.99976 15.5V16.9583C2.99976 17.2083 3.20809 17.4583 3.49976 17.4583H8.87476C8.99976 17.4583 9.12476 17.3333 9.08309 17.1667L7.45809 12.375ZM14.2081 12.2083H13.2081C13.1248 12.2083 13.0414 12.25 12.9998 12.3333L11.4581 17.125C11.4164 17.25 11.4998 17.4167 11.6664 17.4167H16.9998C17.2498 17.4167 17.4998 17.2083 17.4998 16.9167V15.4583C17.4581 13.6667 15.9998 12.2083 14.2081 12.2083ZM14.2081 7C14.2081 4.79167 12.4164 3 10.2081 3C7.99976 3 6.20809 4.79167 6.20809 7C6.20809 9.20833 7.99976 11 10.2081 11C12.4164 11 14.2081 9.20833 14.2081 7Z" fill="#767988"/>
<path d="M10.208 12.3334C9.87467 12.3334 9.58301 12.625 9.58301 12.9584V16.2917C9.58301 16.625 9.87467 16.9167 10.208 16.9167C10.5413 16.9167 10.833 16.625 10.833 16.2917V12.9584C10.833 12.625 10.5413 12.3334 10.208 12.3334Z" fill="#767988"/>
</svg>
