<svg width="64" height="64" viewBox="0 0 64 64" fill="none" xmlns="http://www.w3.org/2000/svg">
<path d="M23.0666 13.7334C21.1999 12.9334 20.2666 12.1334 19.4666 10.1334C19.1999 9.60007 18.5333 9.60007 18.2666 10.1334C17.4666 12.0001 16.6666 12.9334 14.6666 13.7334C14.1333 14.0001 14.1333 14.6667 14.6666 14.9334C16.5333 15.7334 17.4666 16.5334 18.2666 18.5334C18.5333 19.0667 19.1999 19.0667 19.4666 18.5334C20.2666 16.6667 21.0666 15.7334 23.0666 14.9334C23.5999 14.8001 23.5999 14.0001 23.0666 13.7334Z" fill="#D6D6D8"/>
<path d="M46.7994 16.2668C48.3994 16.9335 49.1994 17.7335 49.8661 19.3335C49.9994 19.7335 50.6661 19.7335 50.9328 19.3335C51.5994 17.7335 52.3994 16.9335 53.9994 16.2668C54.3994 16.1335 54.3994 15.4668 53.9994 15.2002C52.3994 14.5335 51.5994 13.7335 50.9328 12.1335C50.7994 11.7335 50.1328 11.7335 49.8661 12.1335C49.1994 13.7335 48.3994 14.5335 46.7994 15.2002C46.2661 15.3335 46.2661 16.0002 46.7994 16.2668ZM13.7328 43.2002C12.1328 42.5335 11.3328 41.7335 10.6661 40.1335C10.5328 39.7335 9.86609 39.7335 9.59942 40.1335C8.93276 41.7335 8.13276 42.5335 6.53276 43.2002C6.13276 43.3335 6.13276 44.0002 6.53276 44.2668C8.13276 44.9335 8.93276 45.7335 9.59942 47.3335C9.73276 47.7335 10.3994 47.7335 10.6661 47.3335C11.3328 45.7335 12.1328 44.9335 13.7328 44.2668C14.2661 44.0002 14.2661 43.3335 13.7328 43.2002ZM56.7994 25.8668L44.6661 23.4668C43.8661 23.3335 43.1994 22.8002 42.9328 22.1335L36.5328 11.0668C35.4661 9.33351 32.9328 9.33351 31.8661 11.0668L25.4661 22.1335C25.0661 22.8002 24.3994 23.2002 23.7328 23.4668L11.9994 25.8668C9.99942 26.2668 9.19942 28.6668 10.5328 30.2668L18.7994 39.8668C19.3328 40.4002 19.4661 41.2002 19.4661 41.8668L18.3994 52.2668C18.1328 54.5335 20.6661 56.0002 22.5328 54.8002C23.1994 54.4002 23.5994 53.6002 23.5994 52.8002V50.6668C23.5994 45.8668 27.4661 42.1335 32.1328 42.1335H36.2661C41.0661 42.1335 44.7994 46.0002 44.7994 50.6668V52.8002C44.7994 53.6002 45.1994 54.4002 45.8661 54.8002L46.2661 55.0668C47.9994 56.2668 50.5328 54.9335 50.3994 52.8002L50.1328 42.9335C50.1328 42.4002 50.2661 41.7335 50.6661 41.3335L58.5328 30.1335C59.5994 28.5335 58.6661 26.2668 56.7994 25.8668ZM34.1328 38.0002C30.3994 38.0002 27.4661 35.0668 27.4661 31.3335C27.4661 27.6002 30.3994 24.6668 34.1328 24.6668C37.8661 24.6668 40.7994 27.6002 40.7994 31.3335C40.7994 35.0668 37.8661 38.0002 34.1328 38.0002Z" fill="#D6D6D8"/>
</svg>
