<svg width="20" height="20" viewBox="0 0 20 20" fill="none" xmlns="http://www.w3.org/2000/svg">
<path d="M20 0H0V20H20V0Z" fill="white"/>
<path d="M4.37467 13.5C5.29134 13.5 6.04134 12.75 6.04134 11.8333C6.04134 10.9167 5.29134 10.1667 4.37467 10.1667C3.45801 10.1667 2.70801 10.9167 2.70801 11.8333C2.70801 12.75 3.45801 13.5 4.37467 13.5ZM14.3747 11.8333C14.3747 12.75 15.1247 13.5 16.0413 13.5C16.958 13.5 17.708 12.75 17.708 11.8333C17.708 10.9167 16.958 10.1667 16.0413 10.1667C15.1247 10.125 14.3747 10.875 14.3747 11.8333ZM13.583 12.375C13.4997 11.9583 13.4997 11.5 13.6247 11C13.833 10.3333 14.333 9.83333 14.958 9.54166C15.4997 9.29166 15.9997 9.25 16.458 9.33333C16.583 9.375 16.708 9.25 16.708 9.125V3.45833C16.708 3 16.333 2.625 15.8747 2.625H4.62467C4.16634 2.625 3.79134 3 3.79134 3.45833V9.125C3.79134 9.25 3.91634 9.33333 4.04134 9.33333C4.58301 9.25 5.16634 9.33333 5.79134 9.75C6.24967 10.0417 6.58301 10.5 6.74968 11C6.91634 11.5 6.91634 11.9583 6.83301 12.375C6.79134 12.5 6.91634 12.625 7.04134 12.625H7.49967C7.66634 12.625 7.74967 12.5417 7.74967 12.4583C7.99968 11.375 8.99967 10.5417 10.208 10.5417C11.3747 10.5417 12.3747 11.375 12.6663 12.4583C12.708 12.5417 12.7497 12.625 12.8747 12.625H13.4163C13.5413 12.625 13.6247 12.5 13.583 12.375ZM9.99967 8.375H7.08301C6.79134 8.375 6.54134 8.125 6.54134 7.83333C6.54134 7.54167 6.79134 7.29167 7.08301 7.29167H9.99967C10.2913 7.29167 10.5413 7.54167 10.5413 7.83333C10.5413 8.125 10.2913 8.375 9.99967 8.375ZM7.08301 6.29167C6.79134 6.29167 6.54134 6.04167 6.54134 5.75C6.54134 5.45833 6.79134 5.20833 7.08301 5.20833H13.7497C14.0413 5.20833 14.2913 5.45833 14.2913 5.75C14.2913 6.04167 14.0413 6.29167 13.7497 6.29167H7.08301ZM6.04134 14.3333H2.70801C1.95801 14.3333 1.33301 14.9583 1.33301 15.7083V16.0833C1.33301 16.3333 1.49967 16.5 1.74967 16.5H6.20801C6.29134 16.5 6.37467 16.4167 6.41634 16.3333C6.54134 15.875 6.79134 15.5 7.16634 15.2083C7.24968 15.125 7.29134 15 7.20801 14.9167C6.95801 14.5833 6.54134 14.3333 6.04134 14.3333ZM17.708 14.3333H14.3747C13.8747 14.3333 13.458 14.5833 13.208 14.9583C13.1663 15.0417 13.1663 15.1667 13.2497 15.25C13.583 15.5417 13.8747 15.9167 13.9997 16.375C14.0413 16.4583 14.1247 16.5417 14.208 16.5417H18.6663C18.9163 16.5417 19.083 16.375 19.083 16.125V15.75C19.083 14.9583 18.458 14.3333 17.708 14.3333Z" fill="#767988"/>
<path d="M10.208 14.75C11.1247 14.75 11.8747 14 11.8747 13.0833C11.8747 12.1666 11.1247 11.4166 10.208 11.4166C9.29138 11.4166 8.54138 12.1666 8.54138 13.0833C8.54138 14 9.29138 14.75 10.208 14.75ZM11.8747 15.5833H8.54138C7.79138 15.5833 7.16638 16.2083 7.16638 16.9583V17.3333C7.16638 17.5833 7.33305 17.75 7.58305 17.75H12.833C13.083 17.75 13.2497 17.5833 13.2497 17.3333V16.9583C13.2497 16.2083 12.6247 15.5833 11.8747 15.5833Z" fill="#767988"/>
</svg>
